<?xml version="1.0" encoding="UTF-8" standalone="no"?>
<!-- Created with Inkscape (http://www.inkscape.org/) -->

<svg
   xmlns:dc="http://purl.org/dc/elements/1.1/"
   xmlns:cc="http://creativecommons.org/ns#"
   xmlns:rdf="http://www.w3.org/1999/02/22-rdf-syntax-ns#"
   xmlns:svg="http://www.w3.org/2000/svg"
   xmlns="http://www.w3.org/2000/svg"
   version="1.1"
   width="32pt"
   height="32pt"
   id="svg1">
  <defs
     id="defs3" />
  <metadata
     id="metadata4">
    <rdf:RDF>
      <cc:Work
         rdf:about="">
        <dc:format>image/svg+xml</dc:format>
        <dc:type
           rdf:resource="http://purl.org/dc/dcmitype/StillImage" />
        <dc:title></dc:title>
      </cc:Work>
    </rdf:RDF>
  </metadata>
  <g
     id="layer1" />
  <path
     d="M 10.20431,39.590819 C 8.5657243,39.02475 7.9511467,38.050695 7.9740837,36.05609 c 0.016528,-1.43506 0.677824,-3.729013 1.4596162,-5.063044 0.6490851,-1.107577 2.0680851,-2.336636 3.3897211,-2.935977 2.893451,-1.312146 7.30946,-1.944422 9.331061,-1.336012 l 0.761698,0.229237 0,-24.3442718 0,-1.6781872 0.902065,0 0.902067,0 -0.04374,4.0239452 -0.04374,26.6900328 -0.465716,1.389679 c -0.256139,0.764324 -0.677635,1.763801 -0.936651,2.221062 -0.689249,1.216767 -2.078164,2.451719 -3.464369,3.080344 -3.042823,1.379881 -7.508256,1.967342 -9.561786,1.257921 z"
     id="path1227" />
</svg>
