<?xml version="1.0" encoding="UTF-8" standalone="no"?>
<!-- Created with Inkscape (http://www.inkscape.org/) -->

<svg
   xmlns:dc="http://purl.org/dc/elements/1.1/"
   xmlns:cc="http://creativecommons.org/ns#"
   xmlns:rdf="http://www.w3.org/1999/02/22-rdf-syntax-ns#"
   xmlns:svg="http://www.w3.org/2000/svg"
   xmlns="http://www.w3.org/2000/svg"
   version="1.1"
   width="32pt"
   height="32pt"
   id="svg1">
  <defs
     id="defs3" />
  <metadata
     id="metadata4">
    <rdf:RDF>
      <cc:Work
         rdf:about="">
        <dc:format>image/svg+xml</dc:format>
        <dc:type
           rdf:resource="http://purl.org/dc/dcmitype/StillImage" />
        <dc:title></dc:title>
      </cc:Work>
    </rdf:RDF>
  </metadata>
  <g
     id="layer1" />
  <path
     d="m 19.917798,0.8776486 0,19.1200414 0,9.510227 -0.606245,-0.186537 c -1.58806,-0.477934 -5.048635,0.04184 -7.321576,1.072587 -1.038202,0.470811 -2.1482654,1.415025 -2.6581517,2.285079 -0.6141335,1.047942 -1.1528926,2.883241 -1.1658561,4.010545 -0.018018,1.566854 0.484917,2.306748 1.7721016,2.75142 1.6131462,0.557282 5.1178372,0.10464 7.5081122,-0.979319 1.088927,-0.493814 2.16335,-1.469155 2.704786,-2.424981 0.20347,-0.359198 0.544939,-1.125055 0.746149,-1.725466 l 0.373073,-1.119223 0.04663,-11.328962 0,-3.217763 1.445662,1.399027 c 1.840065,1.761052 3.485867,3.717817 4.29035,5.083133 1.70913,2.900619 1.779308,5.956855 0.233172,9.839826 -0.752037,1.888663 -0.801635,2.325312 -0.32644,2.658152 0.399805,0.280035 1.013028,0.301644 1.352393,0.04663 0.619409,-0.465442 1.790175,-4.189907 2.051907,-6.528794 0.254853,-2.277411 -0.105312,-4.415855 -1.119222,-6.528795 l -0.512975,-1.072584 0.606246,-1.072588 c 1.081508,-2.008201 1.10071,-3.893314 0.09327,-6.575428 C 29.140353,15.119599 23.616394,6.5208083 22.809121,4.9348279 22.347016,4.0269696 21.833087,2.7361329 21.643265,2.0435048 l -0.32644,-1.11922138 -0.04663,-0.0466316 -0.65288,0 z m 1.399027,7.9278225 1.53893,1.5389299 c 2.751914,2.755728 4.701577,5.678703 5.129768,7.741285 0.20678,0.996054 0.117951,2.433572 -0.186537,3.171129 l -0.186537,0.512976 -1.072588,-1.445661 c -0.571655,-0.796553 -1.28767,-1.817133 -1.632198,-2.285078 -1.719796,-2.335864 -3.010597,-4.831044 -3.404301,-6.668697 -0.05475,-0.255562 -0.108474,-0.438547 -0.139902,-0.512977 -0.0078,0.03171 -0.04089,0.06429 -0.04663,0.139903 z"
     id="path1227" />
</svg>
