<?xml version="1.0" encoding="UTF-8" standalone="no"?>
<!-- Created with Inkscape (http://www.inkscape.org/) -->

<svg
   xmlns:dc="http://purl.org/dc/elements/1.1/"
   xmlns:cc="http://creativecommons.org/ns#"
   xmlns:rdf="http://www.w3.org/1999/02/22-rdf-syntax-ns#"
   xmlns:svg="http://www.w3.org/2000/svg"
   xmlns="http://www.w3.org/2000/svg"
   version="1.1"
   width="48"
   height="48"
   id="svg2">
  <defs
     id="defs4" />
  <metadata
     id="metadata7">
    <rdf:RDF>
      <cc:Work
         rdf:about="">
        <dc:format>image/svg+xml</dc:format>
        <dc:type
           rdf:resource="http://purl.org/dc/dcmitype/StillImage" />
        <dc:title></dc:title>
      </cc:Work>
    </rdf:RDF>
  </metadata>
  <path
     d="m 17.946428,42.9215 a 2.5892856,2.5892856 0 1 1 -5.178571,0 2.5892856,2.5892856 0 1 1 5.178571,0 z"
     id="path3107"
     style="fill:#000000;fill-opacity:1;stroke:none" />
  <path
     d="m 39.114285,42.9215 a 2.5892856,2.5892856 0 1 1 -5.178571,0 2.5892856,2.5892856 0 1 1 5.178571,0 z"
     id="path3107-0"
     style="fill:#000000;fill-opacity:1;stroke:none" />
  <path
     d="m 28.530358,42.9215 a 2.5892856,2.5892856 0 1 1 -5.178571,0 2.5892856,2.5892856 0 1 1 5.178571,0 z"
     id="path3107-2"
     style="fill:#000000;fill-opacity:1;stroke:none" />
  <g
     id="text3925-09"
     style="font-size:53.04335022px;font-style:normal;font-variant:normal;font-weight:normal;font-stretch:normal;line-height:125%;letter-spacing:0px;word-spacing:0px;fill:#000000;fill-opacity:1;stroke:none;font-family:Emmentaler;-inkscape-font-specification:Emmentaler">
    <path
       d="m 15.074177,14.036651 c 1.449839,-0.884038 2.457662,-1.71505 3.023471,-2.493038 0.38897,-0.530413 0.830998,-1.396787 1.326084,-2.5991239 0.106071,-0.2475133 0.300563,-0.3359188 0.583477,-0.2652167 0.318243,0.070747 0.477373,0.2829198 0.47739,0.6365202 l 0,13.5790974 3.606947,0 c 0.459689,8e-6 0.689543,0.247544 0.689564,0.742607 -2.1e-5,0.459716 -0.229875,0.68957 -0.689564,0.689564 l -3.606947,0 0,0.848693 c -1.7e-5,1.237683 0.335924,2.333911 1.007823,3.288688 0.671865,0.91942 1.538238,1.379128 2.599124,1.379127 0.353602,1e-6 0.530413,0.176812 0.530434,0.530434 -2.1e-5,0.388984 -0.176832,0.583476 -0.530434,0.583476 -0.707264,0 -1.785811,-0.106086 -3.235644,-0.31826 -1.449867,-0.247535 -2.546095,-0.371302 -3.288688,-0.371303 -0.742619,1e-6 -1.838847,0.123768 -3.288687,0.371303 -1.449861,0.212174 -2.528408,0.31826 -3.235645,0.31826 -0.353629,0 -0.53044,-0.194492 -0.530433,-0.583476 -7e-6,-0.353622 0.176804,-0.530433 0.530433,-0.530434 1.060859,1e-6 1.927233,-0.459707 2.599124,-1.379127 0.671873,-0.954777 1.007814,-2.051005 1.007824,-3.288688 l 0,-0.848693 -9.1764994,0 C 4.9782584,24.327067 4.5892742,24.2033 4.3063769,23.955757 4.0588412,23.708229 3.9350735,23.460693 3.9350734,23.21315 c 1e-7,-0.141441 0.035362,-0.247527 0.1060867,-0.31826 5.1628809,-6.117652 7.7443209,-12.005458 7.7443289,-17.6634354 -8e-6,-0.5304072 0.212166,-0.7956237 0.63652,-0.7956502 l 0.15913,0 c 1.449842,0.4597351 2.634476,0.6895894 3.553905,0.6895635 0.919405,2.59e-5 2.104039,-0.2298284 3.553904,-0.6895635 0.07071,-0.035336 0.141434,-0.053017 0.212174,-0.053043 0.247519,2.66e-5 0.442011,0.1061132 0.583477,0.3182601 0.141432,0.1768373 0.141432,0.3536483 0,0.5304335 L 5.4733306,22.89489 l 9.1764994,0 0,-7.797372 c -10e-6,-0.530417 0.141438,-0.884039 0.424347,-1.060867"
       id="path2988" />
  </g>
</svg>
