<?xml version="1.0" encoding="UTF-8" standalone="no"?>
<!-- Created with Inkscape (http://www.inkscape.org/) -->

<svg
   xmlns:dc="http://purl.org/dc/elements/1.1/"
   xmlns:cc="http://creativecommons.org/ns#"
   xmlns:rdf="http://www.w3.org/1999/02/22-rdf-syntax-ns#"
   xmlns:svg="http://www.w3.org/2000/svg"
   xmlns="http://www.w3.org/2000/svg"
   xmlns:sodipodi="http://sodipodi.sourceforge.net/DTD/sodipodi-0.dtd"
   xmlns:inkscape="http://www.inkscape.org/namespaces/inkscape"
   version="1.1"
   width="48"
   height="48"
   id="svg2"
   inkscape:version="0.48.4 r9939"
   sodipodi:docname="icon-barline.svg">
  <sodipodi:namedview
     pagecolor="#ffffff"
     bordercolor="#666666"
     borderopacity="1"
     objecttolerance="10"
     gridtolerance="10"
     guidetolerance="10"
     inkscape:pageopacity="0"
     inkscape:pageshadow="2"
     inkscape:window-width="640"
     inkscape:window-height="480"
     id="namedview14"
     showgrid="false"
     inkscape:zoom="0.43457604"
     inkscape:cx="-218.89664"
     inkscape:cy="-20.928079"
     inkscape:window-x="0"
     inkscape:window-y="0"
     inkscape:window-maximized="0"
     inkscape:current-layer="svg2" />
  <defs
     id="defs4" />
  <metadata
     id="metadata7">
    <rdf:RDF>
      <cc:Work
         rdf:about="">
        <dc:format>image/svg+xml</dc:format>
        <dc:type
           rdf:resource="http://purl.org/dc/dcmitype/StillImage" />
        <dc:title />
      </cc:Work>
    </rdf:RDF>
  </metadata>
  <path
     d="m 17.946428,42.9215 a 2.5892856,2.5892856 0 1 1 -5.178571,0 2.5892856,2.5892856 0 1 1 5.178571,0 z"
     id="path3107"
     style="fill:#000000;fill-opacity:1;stroke:none" />
  <path
     d="m 39.114285,42.9215 a 2.5892856,2.5892856 0 1 1 -5.178571,0 2.5892856,2.5892856 0 1 1 5.178571,0 z"
     id="path3107-0"
     style="fill:#000000;fill-opacity:1;stroke:none" />
  <path
     d="m 28.530358,42.9215 a 2.5892856,2.5892856 0 1 1 -5.178571,0 2.5892856,2.5892856 0 1 1 5.178571,0 z"
     id="path3107-2"
     style="fill:#000000;fill-opacity:1;stroke:none" />
  <path
     d="M 14.6,13 z"
     id="path3060"
     style="fill:none;stroke:#000000;stroke-width:1px;stroke-linecap:butt;stroke-linejoin:miter;stroke-opacity:1" />
  <path
     d="M 14.6,27 z"
     id="path3062"
     style="fill:none;stroke:#000000;stroke-width:1px;stroke-linecap:butt;stroke-linejoin:miter;stroke-opacity:1" />
  <path
     d="m 17.061147,25.249676 a 2.5892856,2.5892856 0 1 0 -5.178571,0 2.5892856,2.5892856 0 1 0 5.178571,0 z"
     id="path3107-08"
     style="fill:#000000;fill-opacity:1;stroke:none" />
  <path
     d="m 17.072332,14.811492 a 2.5892856,2.5892856 0 1 1 -5.178571,0 2.5892856,2.5892856 0 1 1 5.178571,0 z"
     id="path3107-00"
     style="fill:#000000;fill-opacity:1;stroke:none" />
  <path
     d="m 22.2,6 0,28"
     id="path3089"
     style="fill:none;stroke:#000000;stroke-width:1px;stroke-linecap:butt;stroke-linejoin:miter;stroke-opacity:1"
     inkscape:connector-curvature="0" />
  <path
     d="m 28.2,6 0,28"
     id="path3091"
     style="fill:none;stroke:#000000;stroke-width:3;stroke-linecap:butt;stroke-linejoin:miter;stroke-miterlimit:4;stroke-opacity:1;stroke-dasharray:none"
     inkscape:connector-curvature="0" />
</svg>
