<?xml version="1.0" encoding="UTF-8" standalone="no"?>
<!-- Created with Inkscape (http://www.inkscape.org/) -->

<svg
   xmlns:dc="http://purl.org/dc/elements/1.1/"
   xmlns:cc="http://creativecommons.org/ns#"
   xmlns:rdf="http://www.w3.org/1999/02/22-rdf-syntax-ns#"
   xmlns:svg="http://www.w3.org/2000/svg"
   xmlns="http://www.w3.org/2000/svg"
   version="1.1"
   width="48"
   height="48"
   id="svg2">
  <defs
     id="defs4" />
  <metadata
     id="metadata7">
    <rdf:RDF>
      <cc:Work
         rdf:about="">
        <dc:format>image/svg+xml</dc:format>
        <dc:type
           rdf:resource="http://purl.org/dc/dcmitype/StillImage" />
        <dc:title></dc:title>
      </cc:Work>
    </rdf:RDF>
  </metadata>
  <g
     transform="translate(0,-1004.3622)"
     id="layer1">
    <g
       transform="matrix(0.62969173,0,0,0.62969173,12.219935,375.86581)"
       id="layer1-7">
      <g
         transform="matrix(1.8686489,0,0,1.8686489,-5.7315382,970.88656)"
         id="text3027"
         style="font-size:40px;font-style:normal;font-variant:normal;font-weight:normal;font-stretch:normal;line-height:125%;letter-spacing:0px;word-spacing:0px;fill:#000000;fill-opacity:1;stroke:none;font-family:Emmentaler;-inkscape-font-specification:Emmentaler">
        <path
           d="m 13.410714,35.257857 -0.04,2.76 c -10e-7,0.05333 -0.01333,0.119998 -0.04,0.2 -1e-6,0.106665 -1e-6,0.186665 0,0.24 -1e-6,0.586664 0.05333,1.466663 0.16,2.64 0.613332,-0.506671 1.079998,-0.920004 1.4,-1.24 0.346664,-0.293336 0.73333,-0.693336 1.16,-1.2 0.453329,-0.480002 0.773329,-0.986668 0.96,-1.52 0.213329,-0.506667 0.319995,-1.039999 0.32,-1.6 -5e-6,-0.746665 -0.160005,-1.386664 -0.48,-1.92 -0.293337,-0.559996 -0.720004,-0.839996 -1.28,-0.84 -0.613336,4e-6 -1.120002,0.253337 -1.52,0.76 -0.400001,0.480003 -0.613334,1.053335 -0.64,1.72 m -1.56,7.2 -0.44,-23.96 c 0.373334,-0.186648 0.706667,-0.279982 1,-0.28 0.293333,1.8e-5 0.626666,0.09335 1,0.28 l -0.24,13.96 c 1.093332,-0.799995 2.266664,-1.199995 3.52,-1.2 1.039995,5e-6 1.919994,0.400005 2.64,1.2 0.719993,0.773337 1.079992,1.706669 1.08,2.8 -8e-6,0.773334 -0.226674,1.506667 -0.68,2.2 -0.426673,0.693332 -0.89334,1.226665 -1.4,1.6 -0.480005,0.399997 -1.173338,0.906663 -2.08,1.52 -0.906669,0.639995 -1.560002,1.119995 -1.96,1.44 -0.133335,0.106661 -0.293335,0.266661 -0.48,0.48 -0.186668,0.239994 -0.373334,0.42666 -0.56,0.56 -0.160001,0.159993 -0.346667,0.239993 -0.56,0.24 -0.24,-7e-6 -0.44,-0.08001 -0.6,-0.24 -0.159999,-0.160006 -0.239999,-0.360006 -0.24,-0.6"
           id="path3034" />
      </g>
    </g>
    <g
       transform="matrix(0.61190146,0,0,0.61190146,-3.2823605,394.2057)"
       id="layer1-6">
      <g
         transform="matrix(1.5595238,0,0,1.5595238,-13.40072,-570.63096)"
         id="text2997"
         style="font-size:40px;font-style:normal;font-variant:normal;font-weight:normal;font-stretch:normal;line-height:125%;letter-spacing:0px;word-spacing:0px;fill:#000000;fill-opacity:1;stroke:none;font-family:Emmentaler;-inkscape-font-specification:Emmentaler">
        <path
           d="m 27.082141,1037.9486 c -8e-6,0.1866 -0.06668,0.3466 -0.2,0.48 -0.133341,0.1333 -0.293341,0.2 -0.48,0.2 -0.186674,0 -0.346674,-0.067 -0.48,-0.2 -0.13334,-0.1334 -0.200007,-0.2934 -0.2,-0.48 l 0,-6.04 -3.48,1.24 0,6.48 c -3e-6,0.1866 -0.06667,0.3466 -0.2,0.48 -0.133336,0.1333 -0.293336,0.2 -0.48,0.2 -0.186669,0 -0.346669,-0.067 -0.48,-0.2 -0.133335,-0.1334 -0.200002,-0.2934 -0.2,-0.48 l 0,-6 -1.56,0.52 c -0.186667,0.08 -0.373333,0.053 -0.56,-0.08 -0.186666,-0.1333 -0.28,-0.3067 -0.28,-0.52 l 0,-2.56 c 0,-0.2933 0.146667,-0.4933 0.44,-0.6 l 1.96,-0.72 0,-6.56 -1.56,0.56 c -0.186667,0.08 -0.373333,0.053 -0.56,-0.08 -0.186666,-0.1333 -0.28,-0.3067 -0.28,-0.52 l 0,-2.6 c 0,-0.2933 0.146667,-0.4933 0.44,-0.6 l 1.96,-0.68 0,-6.52 c -2e-6,-0.1867 0.06667,-0.3467 0.2,-0.48 0.133331,-0.1333 0.293331,-0.2 0.48,-0.2 0.186664,0 0.346664,0.067 0.48,0.2 0.13333,0.1333 0.199997,0.2933 0.2,0.48 l 0,6.04 3.48,-1.24 0,-6.48 c -7e-6,-0.1867 0.06666,-0.3467 0.2,-0.48 0.133326,-0.1333 0.293326,-0.2 0.48,-0.2 0.186659,0 0.346659,0.067 0.48,0.2 0.133325,0.1333 0.199992,0.2933 0.2,0.48 l 0,6 1.56,-0.52 c 0.186657,-0.08 0.373323,-0.053 0.56,0.08 0.186656,0.1333 0.279989,0.3067 0.28,0.52 l 0,2.56 c -1.1e-5,0.2933 -0.146677,0.4933 -0.44,0.6 l -1.96,0.72 0,6.56 1.56,-0.56 c 0.186657,-0.08 0.373323,-0.053 0.56,0.08 0.186656,0.1333 0.279989,0.3067 0.28,0.52 l 0,2.6 c -1.1e-5,0.2933 -0.146677,0.4933 -0.44,0.6 l -1.96,0.68 0,6.52 m -1.36,-16.52 -3.48,1.2 0,6.56 3.48,-1.2 0,-6.56"
           id="path3006" />
      </g>
    </g>
    <path
       d="m 17.142857,43 a 2.5892856,2.5892856 0 1 1 -5.178571,0 2.5892856,2.5892856 0 1 1 5.178571,0 z"
       transform="translate(0.80357143,1004.2837)"
       id="path3107"
       style="fill:#000000;fill-opacity:1;stroke:none" />
    <path
       d="m 17.142857,43 a 2.5892856,2.5892856 0 1 1 -5.178571,0 2.5892856,2.5892856 0 1 1 5.178571,0 z"
       transform="translate(21.971428,1004.2837)"
       id="path3107-0"
       style="fill:#000000;fill-opacity:1;stroke:none" />
    <path
       d="m 17.142857,43 a 2.5892856,2.5892856 0 1 1 -5.178571,0 2.5892856,2.5892856 0 1 1 5.178571,0 z"
       transform="translate(11.387501,1004.2837)"
       id="path3107-2"
       style="fill:#000000;fill-opacity:1;stroke:none" />
  </g>
</svg>
