<?xml version="1.0" encoding="UTF-8" standalone="no"?>
<!-- Created with Inkscape (http://www.inkscape.org/) -->

<svg
   xmlns:dc="http://purl.org/dc/elements/1.1/"
   xmlns:cc="http://creativecommons.org/ns#"
   xmlns:rdf="http://www.w3.org/1999/02/22-rdf-syntax-ns#"
   xmlns:svg="http://www.w3.org/2000/svg"
   xmlns="http://www.w3.org/2000/svg"
   version="1.1"
   width="32pt"
   height="32pt"
   id="svg1">
  <defs
     id="defs3" />
  <metadata
     id="metadata4">
    <rdf:RDF>
      <cc:Work
         rdf:about="">
        <dc:format>image/svg+xml</dc:format>
        <dc:type
           rdf:resource="http://purl.org/dc/dcmitype/StillImage" />
        <dc:title></dc:title>
      </cc:Work>
    </rdf:RDF>
  </metadata>
  <g
     id="layer1" />
  <path
     d="M 17.259709,36.122795 C 9.322467,35.419709 3.731948,31.634561 3.674935,26.925024 c -0.03445,-2.845652 1.810602,-5.124176 5.699186,-7.038138 3.849536,-1.894746 8.073225,-2.614245 12.91663,-2.20034 5.567583,0.475796 9.368386,1.885201 12.071241,4.476242 2.216991,2.125275 2.843981,5.04149 1.598216,7.433514 -1.657352,3.18232 -6.71468,5.787761 -12.68834,6.536797 -2.071972,0.259805 -2.98044,0.258246 -6.012159,-0.0103 z m 7.032713,-2.197768 c 0.822511,-0.413624 1.71017,-1.509513 2.075198,-2.562006 0.167004,-0.481524 0.301032,-1.847096 0.30021,-3.058751 -0.0013,-1.879913 -0.08757,-2.374835 -0.611393,-3.506355 -1.235409,-2.668679 -3.577484,-4.510595 -6.517614,-5.125748 -2.209763,-0.462344 -3.675789,-0.08068 -4.793812,1.248019 -0.886683,1.053762 -1.184605,2.217067 -1.182975,4.619195 0.0013,1.879911 0.08758,2.374833 0.61139,3.506353 0.770735,1.664907 2.488395,3.513277 3.955855,4.256896 2.168388,1.098806 4.706149,1.355083 6.163141,0.622397 z"
     id="path1113" />
</svg>
