<?xml version="1.0" encoding="UTF-8" standalone="no"?>
<!-- Created with Inkscape (http://www.inkscape.org/) -->

<svg
   xmlns:dc="http://purl.org/dc/elements/1.1/"
   xmlns:cc="http://creativecommons.org/ns#"
   xmlns:rdf="http://www.w3.org/1999/02/22-rdf-syntax-ns#"
   xmlns:svg="http://www.w3.org/2000/svg"
   xmlns="http://www.w3.org/2000/svg"
   version="1.1"
   width="32pt"
   height="32pt"
   id="svg1">
  <defs
     id="defs3" />
  <metadata
     id="metadata4">
    <rdf:RDF>
      <cc:Work
         rdf:about="">
        <dc:format>image/svg+xml</dc:format>
        <dc:type
           rdf:resource="http://purl.org/dc/dcmitype/StillImage" />
        <dc:title></dc:title>
      </cc:Work>
    </rdf:RDF>
  </metadata>
  <g
     id="layer1" />
  <path
     d="m 22.340983,1.258545 0,23.860611 0,1.860611 -0.756557,-0.232787 c -1.981797,-0.596432 -6.30038,0.05221 -9.136866,1.338522 -1.295613,0.587542 -2.6809028,1.765863 -3.3172087,2.851635 -0.7664001,1.307766 -1.4387376,3.598104 -1.4549154,5.004909 -0.022484,1.955334 0.6051462,2.878675 2.2114714,3.433599 2.0131057,0.695452 6.3867407,0.130587 9.3696557,-1.222128 1.358911,-0.61625 2.699724,-1.833413 3.375403,-3.026224 0.253918,-0.448259 0.680048,-1.403999 0.931146,-2.153276 l 0.465572,-1.396718 0.05819,-4.130278 0,-16.411445 1.862292,1.745898 c 2.296286,2.19768 4.350144,4.639602 5.354088,6.343432 2.132887,3.619789 2.220465,7.43378 0.290983,12.279485 -0.938493,2.356932 -1.058585,2.901842 -0.465573,3.317206 0.498934,0.349467 1.264195,0.376433 1.687703,0.05821 0.772983,-0.580844 2.234024,-5.228742 2.560651,-8.147527 0.31804,-2.842066 -0.13142,-5.510708 -1.39672,-8.147526 L 33.340142,17.146225 31.943424,14.934754 30.663098,13.130659 C 29.949708,12.13661 28.99797,10.862991 28.56802,10.279025 26.421824,7.364014 24.810986,4.250185 24.319667,1.956909 24.183012,1.31906 24.124387,0.997767 24.08688,1.491336 l 0,-0.232786 -0.872949,0 z"
     id="path1227" />
</svg>
