<?xml version="1.0" encoding="UTF-8" standalone="no"?>
<!-- Created with Inkscape (http://www.inkscape.org/) -->

<svg
   xmlns:dc="http://purl.org/dc/elements/1.1/"
   xmlns:cc="http://creativecommons.org/ns#"
   xmlns:rdf="http://www.w3.org/1999/02/22-rdf-syntax-ns#"
   xmlns:svg="http://www.w3.org/2000/svg"
   xmlns="http://www.w3.org/2000/svg"
   xmlns:inkscape="http://www.inkscape.org/namespaces/inkscape"
   version="1.1"
   width="32pt"
   height="32pt"
   id="svg1">
  <defs
     id="defs3">
    <inkscape:path-effect
       effect="spiro"
       id="path-effect3007" />
  </defs>
  <metadata
     id="metadata4">
    <rdf:RDF>
      <cc:Work
         rdf:about="">
        <dc:format>image/svg+xml</dc:format>
        <dc:type
           rdf:resource="http://purl.org/dc/dcmitype/StillImage" />
        <dc:title></dc:title>
      </cc:Work>
    </rdf:RDF>
  </metadata>
  <g
     id="layer1" />
  <path
     d="m 13.681085,39.387476 c -1.685626,-0.582319 -2.317845,-1.584338 -2.294249,-3.636204 0.017,-1.476255 0.697281,-3.836059 1.501516,-5.208387 0.667718,-1.139374 2.127455,-2.403714 3.487028,-3.020263 2.976518,-1.349813 7.519295,-2.00024 9.598931,-1.374363 l 0.783562,0.235817 0,-25.0431295 0,-1.0393956 0.927966,0 0.92796,0 -0.04499,3.452494 -0.04498,27.4562301 -0.479085,1.429573 c -0.263492,0.786266 -0.697089,1.814435 -0.963542,2.284822 -0.709035,1.251697 -2.137822,2.5221 -3.563821,3.168773 -3.130173,1.419493 -7.723795,2.023818 -9.83629,1.294033 z M 16.5344,37.505201 c 1.804794,-0.707118 7.691609,-4.546747 9.142045,-5.962831 1.031565,-1.007126 1.254098,-1.695589 0.856018,-2.648331 -0.283446,-0.678377 -0.999448,-1.13156 -1.787802,-1.13156 -1.145788,0 -4.265898,1.718984 -8.259186,4.550289 -2.980021,2.112883 -3.61462,2.969825 -3.178312,4.291865 0.233632,0.707914 1.010541,1.24741 1.797663,1.248326 0.297206,3.48e-4 0.940513,-0.156142 1.429574,-0.347758 z"
     id="path1227" />
</svg>
